<?xml version="1.0" encoding="UTF-8" standalone="no"?>
<!DOCTYPE svg PUBLIC "-//W3C//DTD SVG 1.1//EN" "http://www.w3.org/Graphics/SVG/1.1/DTD/svg11.dtd">
<svg width="100%" height="100%" viewBox="0 0 1347 1347" version="1.1" xmlns="http://www.w3.org/2000/svg" xmlns:xlink="http://www.w3.org/1999/xlink" xml:space="preserve" xmlns:serif="http://www.serif.com/" style="fill-rule:evenodd;clip-rule:evenodd;stroke-linecap:round;stroke-linejoin:round;stroke-miterlimit:10;">
    <g transform="matrix(1,0,0,1,-989.584,-593.792)">
        <g id="Layer-1" serif:id="Layer 1" transform="matrix(4.16667,0,0,4.16667,0,0)">
            <g transform="matrix(-1,0,0,1,399.061,464.63)">
                <ellipse cx="0" cy="-160.56" rx="160.561" ry="160.56" style="fill:rgb(229,76,0);stroke:rgb(255,254,254);stroke-width:2px;"/>
            </g>
            <g transform="matrix(0.895779,-0.444499,0.444499,0.895779,320.031,261.206)">
                <path d="M0,15.577L-11.415,-14.838C-12.892,-18.688 -14.414,-23.41 -15.98,-29.005C-16.965,-24.708 -18.375,-19.986 -20.21,-14.838L-31.759,15.577L0,15.577ZM15.778,57.071L3.558,25.85L-35.787,25.85L-47.873,57.071L-59.421,57.071L-20.613,-41.494L-11.012,-41.494L27.595,57.071L15.778,57.071Z" style="fill:rgb(255,254,254);fill-rule:nonzero;"/>
            </g>
            <g transform="matrix(0.895779,-0.444499,0.444499,0.895779,379.762,335.176)">
                <path d="M0,45.993C0,54.632 -3.134,61.369 -9.4,66.203C-15.667,71.037 -24.172,73.454 -34.914,73.454C-46.552,73.454 -55.505,71.955 -61.771,68.956L-61.771,57.943C-57.743,59.644 -53.356,60.987 -48.611,61.972C-43.867,62.958 -39.167,63.45 -34.511,63.45C-26.902,63.45 -21.173,62.006 -17.323,59.119C-13.474,56.231 -11.549,52.215 -11.549,47.066C-11.549,43.665 -12.231,40.879 -13.597,38.708C-14.962,36.537 -17.245,34.534 -20.445,32.699C-23.646,30.863 -28.513,28.782 -35.049,26.455C-44.18,23.186 -50.704,19.314 -54.62,14.839C-58.537,10.362 -60.495,4.521 -60.495,-2.686C-60.495,-10.25 -57.653,-16.271 -51.968,-20.746C-46.284,-25.223 -38.764,-27.461 -29.409,-27.461C-19.651,-27.461 -10.676,-25.671 -2.485,-22.089L-6.043,-12.153C-14.145,-15.555 -22.023,-17.255 -29.677,-17.255C-35.72,-17.255 -40.442,-15.957 -43.844,-13.361C-47.246,-10.765 -48.947,-7.161 -48.947,-2.551C-48.947,0.85 -48.32,3.638 -47.067,5.808C-45.814,7.978 -43.699,9.971 -40.722,11.784C-37.745,13.597 -33.191,15.599 -27.059,17.793C-16.764,21.464 -9.68,25.402 -5.808,29.609C-1.936,33.817 0,39.278 0,45.993" style="fill:rgb(255,254,254);fill-rule:nonzero;"/>
            </g>
            <g transform="matrix(0.895779,-0.444499,0.444499,0.895779,481.582,312.91)">
                <path d="M0,-4.634L33.37,-4.634L33.37,43.104C28.179,44.762 22.896,46.014 17.525,46.864C12.153,47.715 5.932,48.14 -1.141,48.14C-16.002,48.14 -27.572,43.72 -35.853,34.88C-44.134,26.039 -48.274,13.652 -48.274,-2.284C-48.274,-12.488 -46.227,-21.43 -42.131,-29.107C-38.035,-36.783 -32.138,-42.647 -24.438,-46.697C-16.739,-50.749 -7.721,-52.774 2.619,-52.774C13.094,-52.774 22.852,-50.85 31.894,-47L27.462,-36.929C18.6,-40.689 10.072,-42.569 1.88,-42.569C-10.07,-42.569 -19.403,-39.01 -26.118,-31.893C-32.832,-24.776 -36.188,-14.905 -36.188,-2.284C-36.188,10.966 -32.955,21.015 -26.486,27.863C-20.019,34.712 -10.518,38.137 2.016,38.137C8.818,38.137 15.466,37.353 21.956,35.786L21.956,5.572L0,5.572L0,-4.634Z" style="fill:rgb(255,254,254);fill-rule:nonzero;stroke:rgb(255,254,254);stroke-width:0.25px;stroke-linecap:butt;"/>
            </g>
            <g transform="matrix(0.895779,-0.444499,0.403819,0.813797,430.873,390.314)">
                <path d="M0,-91.783L0,0L11.414,0L11.414,-91.71L-0.002,-91.71" style="fill:rgb(255,254,254);fill-rule:nonzero;"/>
            </g>
            <g transform="matrix(0.895779,-0.444499,0.444499,0.895779,426.999,260.485)">
                <path d="M0,-77.787L0,-87.925L-54.721,-87.925L-54.721,10.138L-43.307,10.138L-43.307,-31.727L-2.618,-31.727L-2.618,-41.866L-43.307,-41.866L-43.307,-77.787L0,-77.787Z" style="fill:rgb(255,254,254);fill-rule:nonzero;"/>
            </g>
            <g transform="matrix(1.24947,-0.620005,0.620005,1.24947,400.665,298.809)">
                <path d="M0,-0.001C0,3.188 -2.585,5.774 -5.774,5.774C-8.964,5.774 -11.549,3.188 -11.549,-0.001C-11.549,-3.19 -8.964,-5.775 -5.774,-5.775C-2.585,-5.775 0,-3.19 0,-0.001" style="fill:white;"/>
            </g>
        </g>
    </g>
</svg>
