<?xml version="1.0" encoding="UTF-8" standalone="no"?>
<!DOCTYPE svg PUBLIC "-//W3C//DTD SVG 1.1//EN" "http://www.w3.org/Graphics/SVG/1.1/DTD/svg11.dtd">
<svg width="100%" height="100%" viewBox="0 0 1368 1368" version="1.1" xmlns="http://www.w3.org/2000/svg" xmlns:xlink="http://www.w3.org/1999/xlink" xml:space="preserve" xmlns:serif="http://www.serif.com/" style="fill-rule:evenodd;clip-rule:evenodd;stroke-linecap:round;stroke-linejoin:round;stroke-miterlimit:10;">
    <g transform="matrix(1,0,0,1,-956.037,-634.244)">
        <g transform="matrix(4.16667,0,0,4.16667,0,0)">
            <g transform="matrix(-0.952466,-0.304645,-0.304645,0.952466,344.627,469.238)">
                <ellipse cx="0" cy="-160.56" rx="160.561" ry="160.56" style="fill:rgb(255,234,228);stroke:rgb(109,150,194);stroke-width:7px;"/>
            </g>
        </g>
        <g transform="matrix(4.16667,0,0,4.16667,0,0)">
            <g transform="matrix(0.473513,0.1262,-0.135951,0.510103,-190.348,-288.357)">
                <text x="1338.91px" y="964.453px" style="font-family:'Arial-BoldItalicMT', 'Arial', sans-serif;font-weight:700;font-style:italic;font-size:73.924px;fill:rgb(109,150,194);">REVEALED</text>
            </g>
        </g>
        <g transform="matrix(4.16667,0,0,4.16667,0,0)">
            <g transform="matrix(0.511613,0.136354,-0.14689,0.551147,-270.85,-449.516)">
                <text x="1338.91px" y="964.453px" style="font-family:'Arial-BoldItalicMT', 'Arial', sans-serif;font-weight:700;font-style:italic;font-size:125px;fill:rgb(109,150,194);">AR<tspan x="1517.2px 1593.55px " y="964.453px 964.453px ">TI</tspan>ST</text>
            </g>
        </g>
        <g transform="matrix(4.16667,0,0,4.16667,0,0)">
            <g transform="matrix(0.436808,0.116417,-0.125413,0.470561,-216.519,-300.884)">
                <text x="1338.91px" y="964.453px" style="font-family:'Arial-BoldItalicMT', 'Arial', sans-serif;font-weight:700;font-style:italic;font-size:125px;fill:rgb(109,150,194);">FILES</text>
            </g>
        </g>
    </g>
</svg>
